PathFileType	4	(X/Y/Z)	C:\Users\italobelli\Desktop\GitHub\PTbot_officialCBL\Personal_Results\SHRUG03_noisy2.trc
DataRate	CameraRate	NumFrames	NumMarkers	Units	OrigDataRate	OrigDataStartFrame	OrigNumFrames
110.888889	110.888889	47	9	m	110.888889	251	500
Frame#	Time		gu		centelbow		EpL		centpxt8		centijc7		ts		aa		ai		ij
			X1	Y1	Z1	X2	Y2	Z2	X3	Y3	Z3	X4	Y4	Z4	X5	Y5	Z5	X6	Y6	Z6	X7	Y7	Z7	X8	Y8	Z8	X9	Y9	Z9

251	2.2545	-0.076303	0.013391	0.1666	-0.11714	-0.22059	0.21302	-0.097104	-0.21433	0.23735	-0.046816	-0.15316	-0.008669	-0.046816	0.031938	-0.008669	-0.13288	0.042009	0.051062	-0.102	0.050536	0.16492	-0.15477	-0.066751	0.071316	0	0	0
252	2.2635	-0.076593	0.012042	0.16665	-0.11772	-0.22184	0.2124	-0.09775	-0.21565	0.23681	-0.046816	-0.15316	-0.008669	-0.046816	0.031938	-0.008669	-0.13313	0.041341	0.051235	-0.10238	0.049127	0.1652	-0.155	-0.067566	0.070743	0	0	0
253	2.2725	-0.07688	0.010703	0.1667	-0.11829	-0.22308	0.21178	-0.09839	-0.21697	0.23626	-0.046816	-0.15316	-0.008669	-0.046816	0.031938	-0.008669	-0.13337	0.040675	0.051408	-0.10275	0.04773	0.16548	-0.15523	-0.068376	0.070174	0	0	0
254	2.2816	-0.077165	0.0093761	0.16674	-0.11886	-0.22431	0.21117	-0.099021	-0.21827	0.23572	-0.046816	-0.15316	-0.008669	-0.046816	0.031938	-0.008669	-0.13361	0.040014	0.051578	-0.10313	0.046347	0.16576	-0.15546	-0.06918	0.069611	0	0	0
255	2.2906	-0.077447	0.0080651	0.16678	-0.11941	-0.22554	0.21056	-0.099642	-0.21957	0.23519	-0.046816	-0.15316	-0.008669	-0.046816	0.031938	-0.008669	-0.13385	0.039358	0.051747	-0.10349	0.04498	0.16603	-0.15569	-0.069976	0.069054	0	0	0
256	2.2996	-0.077726	0.0067726	0.16683	-0.11996	-0.22675	0.20997	-0.10025	-0.22085	0.23466	-0.046816	-0.15316	-0.008669	-0.046816	0.031938	-0.008669	-0.13409	0.038711	0.051913	-0.10386	0.043635	0.1663	-0.15591	-0.070761	0.068505	0	0	0
257	2.3086	-0.078	0.0055014	0.16687	-0.1205	-0.22794	0.20938	-0.10085	-0.22212	0.23414	-0.046816	-0.15316	-0.008669	-0.046816	0.031938	-0.008669	-0.13432	0.038072	0.052076	-0.10421	0.042312	0.16657	-0.15612	-0.071535	0.067966	0	0	0
258	2.3176	-0.07827	0.0042545	0.16691	-0.12102	-0.22912	0.2088	-0.10144	-0.22336	0.23363	-0.046816	-0.15316	-0.008669	-0.046816	0.031938	-0.008669	-0.13455	0.037445	0.052236	-0.10456	0.041016	0.16682	-0.15634	-0.072294	0.067436	0	0	0
259	2.3267	-0.078535	0.0030348	0.16695	-0.12153	-0.23028	0.20823	-0.102	-0.22458	0.23312	-0.046816	-0.15316	-0.008669	-0.046816	0.031938	-0.008669	-0.13477	0.03683	0.052392	-0.1049	0.03975	0.16708	-0.15654	-0.073037	0.066917	0	0	0
260	2.3357	-0.078794	0.0018451	0.16698	-0.12203	-0.23141	0.20767	-0.10256	-0.22578	0.23263	-0.046816	-0.15316	-0.008669	-0.046816	0.031938	-0.008669	-0.13499	0.03623	0.052544	-0.10524	0.038517	0.16732	-0.15674	-0.073762	0.066411	0	0	0
261	2.3447	-0.079047	0.00068834	0.16702	-0.12251	-0.23252	0.20712	-0.10309	-0.22695	0.23214	-0.046816	-0.15316	-0.008669	-0.046816	0.031938	-0.008669	-0.13521	0.035646	0.052692	-0.10556	0.037319	0.16756	-0.15694	-0.074467	0.065918	0	0	0
262	2.3537	-0.079293	-0.00043261	0.16706	-0.12297	-0.2336	0.20659	-0.10361	-0.22809	0.23167	-0.046816	-0.15316	-0.008669	-0.046816	0.031938	-0.008669	-0.13542	0.03508	0.052834	-0.10588	0.036161	0.16779	-0.15712	-0.07515	0.065439	0	0	0
263	2.3627	-0.079533	-0.0015149	0.16709	-0.12342	-0.23465	0.20607	-0.1041	-0.2292	0.23121	-0.046816	-0.15316	-0.008669	-0.046816	0.031938	-0.008669	-0.13562	0.034533	0.052972	-0.10618	0.035044	0.16801	-0.1573	-0.075809	0.064976	0	0	0
264	2.3717	-0.079764	-0.0025555	0.16712	-0.12384	-0.23567	0.20557	-0.10457	-0.23027	0.23076	-0.046816	-0.15316	-0.008669	-0.046816	0.031938	-0.008669	-0.13582	0.034007	0.053103	-0.10647	0.033974	0.16822	-0.15748	-0.076442	0.064529	0	0	0
265	2.3808	-0.079988	-0.0035517	0.16715	-0.12424	-0.23665	0.20508	-0.10502	-0.23131	0.23033	-0.046816	-0.15316	-0.008669	-0.046816	0.031938	-0.008669	-0.13601	0.033505	0.053229	-0.10675	0.032951	0.16842	-0.15764	-0.077047	0.0641	0	0	0
266	2.3898	-0.080202	-0.0045005	0.16718	-0.12462	-0.23759	0.20461	-0.10545	-0.2323	0.22991	-0.046816	-0.15316	-0.008669	-0.046816	0.031938	-0.008669	-0.13619	0.033027	0.053348	-0.10702	0.03198	0.16861	-0.1578	-0.077622	0.06369	0	0	0
267	2.3988	-0.080408	-0.005399	0.16721	-0.12498	-0.23849	0.20416	-0.10584	-0.23325	0.2295	-0.046816	-0.15316	-0.008669	-0.046816	0.031938	-0.008669	-0.13636	0.032575	0.053461	-0.10728	0.031064	0.16879	-0.15795	-0.078166	0.063299	0	0	0
268	2.4078	-0.080604	-0.0062444	0.16723	-0.12531	-0.23935	0.20373	-0.10622	-0.23416	0.22912	-0.046816	-0.15316	-0.008669	-0.046816	0.031938	-0.008669	-0.13652	0.032151	0.053566	-0.10752	0.030205	0.16895	-0.15809	-0.078675	0.06293	0	0	0
269	2.4168	-0.080789	-0.0070338	0.16725	-0.12562	-0.24017	0.20332	-0.10656	-0.23501	0.22875	-0.046816	-0.15316	-0.008669	-0.046816	0.031938	-0.008669	-0.13667	0.031756	0.053663	-0.10774	0.029408	0.16911	-0.15822	-0.079149	0.062582	0	0	0
270	2.4259	-0.080964	-0.0077642	0.16728	-0.1259	-0.24094	0.20292	-0.10687	-0.23582	0.22839	-0.046816	-0.15316	-0.008669	-0.046816	0.031938	-0.008669	-0.13681	0.031393	0.053752	-0.10795	0.028675	0.16925	-0.15834	-0.079585	0.062258	0	0	0
271	2.4349	-0.081128	-0.0084328	0.16729	-0.12615	-0.24165	0.20256	-0.10715	-0.23657	0.22806	-0.046816	-0.15316	-0.008669	-0.046816	0.031938	-0.008669	-0.13694	0.031063	0.053833	-0.10814	0.028008	0.16938	-0.15845	-0.079981	0.061958	0	0	0
272	2.4439	-0.08128	-0.0090368	0.16731	-0.12637	-0.24232	0.20221	-0.1074	-0.23727	0.22775	-0.046816	-0.15316	-0.008669	-0.046816	0.031938	-0.008669	-0.13706	0.030768	0.053905	-0.10832	0.027413	0.16949	-0.15855	-0.080335	0.061683	0	0	0
273	2.4529	-0.081419	-0.0095731	0.16733	-0.12656	-0.24293	0.20189	-0.10761	-0.23791	0.22745	-0.046816	-0.15316	-0.008669	-0.046816	0.031938	-0.008669	-0.13717	0.030509	0.053968	-0.10847	0.02689	0.16959	-0.15864	-0.080646	0.061435	0	0	0
274	2.4619	-0.081546	-0.010039	0.16734	-0.12672	-0.24348	0.20159	-0.10779	-0.23848	0.22718	-0.046816	-0.15316	-0.008669	-0.046816	0.031938	-0.008669	-0.13726	0.030288	0.054021	-0.10861	0.026444	0.16968	-0.15871	-0.080911	0.061214	0	0	0
275	2.4709	-0.081659	-0.010431	0.16735	-0.12684	-0.24397	0.20132	-0.10793	-0.23899	0.22693	-0.046816	-0.15316	-0.008669	-0.046816	0.031938	-0.008669	-0.13735	0.030106	0.054064	-0.10873	0.026078	0.16974	-0.15878	-0.081128	0.061021	0	0	0
276	2.48	-0.081758	-0.010748	0.16736	-0.12693	-0.2444	0.20108	-0.10803	-0.23944	0.22671	-0.046816	-0.15316	-0.008669	-0.046816	0.031938	-0.008669	-0.13741	0.029967	0.054097	-0.10883	0.025795	0.1698	-0.15883	-0.081296	0.060859	0	0	0
277	2.489	-0.081843	-0.010985	0.16737	-0.12698	-0.24476	0.20086	-0.10809	-0.23982	0.2265	-0.046816	-0.15316	-0.008669	-0.046816	0.031938	-0.008669	-0.13747	0.02987	0.054119	-0.10891	0.025598	0.16983	-0.15887	-0.081412	0.060727	0	0	0
278	2.498	-0.081913	-0.01114	0.16737	-0.127	-0.24505	0.20068	-0.10811	-0.24012	0.22633	-0.046816	-0.15316	-0.008669	-0.046816	0.031938	-0.008669	-0.1375	0.029818	0.054129	-0.10896	0.02549	0.16985	-0.1589	-0.081475	0.060627	0	0	0
279	2.507	-0.081973	-0.011236	0.16737	-0.12699	-0.2453	0.20052	-0.1081	-0.24037	0.22617	-0.046816	-0.15316	-0.008669	-0.046816	0.031938	-0.008669	-0.13753	0.029799	0.054131	-0.109	0.025445	0.16985	-0.15891	-0.081498	0.06055	0	0	0
280	2.516	-0.082031	-0.011328	0.16737	-0.12696	-0.24553	0.20037	-0.10807	-0.24061	0.22603	-0.046816	-0.15316	-0.008669	-0.046816	0.031938	-0.008669	-0.13756	0.029782	0.054131	-0.10904	0.025404	0.16985	-0.15893	-0.08152	0.060475	0	0	0
281	2.5251	-0.082088	-0.01142	0.16736	-0.12693	-0.24576	0.20023	-0.10804	-0.24085	0.2259	-0.046816	-0.15316	-0.008669	-0.046816	0.031938	-0.008669	-0.13758	0.029766	0.054128	-0.10907	0.025364	0.16985	-0.15894	-0.08154	0.060401	0	0	0
282	2.5341	-0.082145	-0.01151	0.16734	-0.12688	-0.24598	0.20011	-0.10799	-0.24107	0.22578	-0.046816	-0.15316	-0.008669	-0.046816	0.031938	-0.008669	-0.13761	0.02975	0.054123	-0.10911	0.025323	0.16985	-0.15896	-0.08156	0.060328	0	0	0
283	2.5431	-0.082201	-0.011598	0.16732	-0.12682	-0.2462	0.2	-0.10794	-0.24129	0.22567	-0.046816	-0.15316	-0.008669	-0.046816	0.031938	-0.008669	-0.13763	0.029736	0.054117	-0.10915	0.025284	0.16984	-0.15897	-0.081578	0.060256	0	0	0
284	2.5521	-0.082256	-0.011686	0.1673	-0.12676	-0.2464	0.1999	-0.10787	-0.24149	0.22557	-0.046816	-0.15316	-0.008669	-0.046816	0.031938	-0.008669	-0.13766	0.029723	0.054108	-0.10918	0.025245	0.16984	-0.15899	-0.081596	0.060186	0	0	0
285	2.5611	-0.08231	-0.011771	0.16727	-0.12668	-0.2466	0.19982	-0.10779	-0.24169	0.22549	-0.046816	-0.15316	-0.008669	-0.046816	0.031938	-0.008669	-0.13768	0.02971	0.054098	-0.10922	0.025207	0.16983	-0.159	-0.081612	0.060116	0	0	0
286	2.5701	-0.082364	-0.011856	0.16724	-0.1266	-0.2468	0.19974	-0.10771	-0.24189	0.22541	-0.046816	-0.15316	-0.008669	-0.046816	0.031938	-0.008669	-0.13771	0.029699	0.054086	-0.10925	0.02517	0.16982	-0.15902	-0.081627	0.060048	0	0	0
287	2.5792	-0.082416	-0.011939	0.16721	-0.12651	-0.24699	0.19967	-0.10761	-0.24208	0.22535	-0.046816	-0.15316	-0.008669	-0.046816	0.031938	-0.008669	-0.13773	0.029689	0.054073	-0.10928	0.025133	0.1698	-0.15903	-0.081642	0.05998	0	0	0
288	2.5882	-0.082468	-0.012021	0.16717	-0.12641	-0.24717	0.19962	-0.10751	-0.24226	0.22529	-0.046816	-0.15316	-0.008669	-0.046816	0.031938	-0.008669	-0.13775	0.029679	0.054058	-0.10931	0.025097	0.16979	-0.15904	-0.081655	0.059914	0	0	0
289	2.5972	-0.082519	-0.012101	0.16713	-0.1263	-0.24735	0.19957	-0.1074	-0.24243	0.22524	-0.046816	-0.15316	-0.008669	-0.046816	0.031938	-0.008669	-0.13778	0.02967	0.054041	-0.10934	0.025062	0.16977	-0.15905	-0.081668	0.059849	0	0	0
290	2.6062	-0.082569	-0.012179	0.16708	-0.12618	-0.24752	0.19953	-0.10728	-0.2426	0.2252	-0.046816	-0.15316	-0.008669	-0.046816	0.031938	-0.008669	-0.1378	0.029663	0.054024	-0.10937	0.025027	0.16976	-0.15907	-0.081679	0.059785	0	0	0
291	2.6152	-0.082618	-0.012256	0.16703	-0.12606	-0.24768	0.1995	-0.10716	-0.24276	0.22517	-0.046816	-0.15316	-0.008669	-0.046816	0.031938	-0.008669	-0.13782	0.029656	0.054005	-0.1094	0.024993	0.16974	-0.15908	-0.08169	0.059723	0	0	0
292	2.6242	-0.082667	-0.012332	0.16698	-0.12593	-0.24785	0.19948	-0.10702	-0.24292	0.22514	-0.046816	-0.15316	-0.008669	-0.046816	0.031938	-0.008669	-0.13784	0.02965	0.053985	-0.10943	0.024961	0.16972	-0.15909	-0.0817	0.059662	0	0	0
293	2.6333	-0.082714	-0.012405	0.16693	-0.12579	-0.248	0.19946	-0.10689	-0.24307	0.22512	-0.046816	-0.15316	-0.008669	-0.046816	0.031938	-0.008669	-0.13786	0.029645	0.053963	-0.10946	0.024929	0.1697	-0.1591	-0.081708	0.059602	0	0	0
294	2.6423	-0.08276	-0.012478	0.16687	-0.12565	-0.24816	0.19945	-0.10674	-0.24322	0.22511	-0.046816	-0.15316	-0.008669	-0.046816	0.031938	-0.008669	-0.13788	0.029641	0.053941	-0.10949	0.024897	0.16968	-0.15911	-0.081716	0.059543	0	0	0
295	2.6513	-0.082806	-0.012548	0.16681	-0.12551	-0.2483	0.19945	-0.10659	-0.24337	0.2251	-0.046816	-0.15316	-0.008669	-0.046816	0.031938	-0.008669	-0.1379	0.029637	0.053918	-0.10952	0.024867	0.16966	-0.15912	-0.081723	0.059485	0	0	0
296	2.6603	-0.08285	-0.012617	0.16675	-0.12535	-0.24845	0.19945	-0.10644	-0.2435	0.2251	-0.046816	-0.15316	-0.008669	-0.046816	0.031938	-0.008669	-0.13792	0.029635	0.053894	-0.10954	0.024838	0.16963	-0.15913	-0.081729	0.059429	0	0	0
297	2.6693	-0.082894	-0.012684	0.16669	-0.1252	-0.24859	0.19946	-0.10628	-0.24364	0.2251	-0.046816	-0.15316	-0.008669	-0.046816	0.031938	-0.008669	-0.13794	0.029633	0.053869	-0.10957	0.024809	0.16961	-0.15914	-0.081733	0.059374	0	0	0
